<?xml version="1.0" encoding="utf-8"?>
<!-- Generator: Adobe Illustrator 25.2.1, SVG Export Plug-In . SVG Version: 6.00 Build 0)  -->
<svg version="1.1" id="Calque_1" xmlns="http://www.w3.org/2000/svg" xmlns:xlink="http://www.w3.org/1999/xlink" x="0px" y="0px"
	 viewBox="0 0 500 500" style="enable-background:new 0 0 500 500;" xml:space="preserve">
<style type="text/css">
	.st0{fill:#FFFFFF;}
</style>
<g transform="translate(0.000000,500.000000) scale(0.100000,-0.100000)">
	<path class="st0" d="M2160,4966c-167-27-297-58-447-108c-614-203-1134-651-1428-1228c-133-262-210-508-250-795
		c-25-175-17-613,13-770C187,1342,594,749,1206,373c246-150,562-274,799-313c28-5,93-16,145-24c69-12,166-16,355-16
		c253,0,273,2,490,39c437,75,921,336,1265,680c356,356,582,782,687,1291c24,114,27,151,31,422c3,243,1,317-13,405
		c-84,543-324,1020-706,1402c-302,302-685,526-1089,637c-240,67-314,76-635,79C2328,4978,2221,4975,2160,4966z M3934,4116
		c-3-8-31-34-61-57c-100-75-117-169-57-309c27-65,28-66,35-365c4-165,12-375,18-467c15-240-3-404-49-428c-25-13-103-13-133,1
		c-60,27-73,154-58,554c7,165,13,372,14,460c3,152,5,163,31,220c28,60,41,163,23,181c-11,11-59-17-142-81c-38-30-121-93-183-140
		c-132-101-182-149-182-174c0-11,16-75,36-143c62-209,57-307-23-460c-36-70-82-117-216-226c-122-99-166-176-153-269
		c13-98,64-157,259-301c72-54,151-120,175-147c87-99,132-234,132-400c0-182-50-312-163-424c-76-75-114-101-220-151
		c-215-103-529-145-777-105c-374,61-636,246-679,480c-36,194,123,446,358,568c157,82,409,136,634,137c37,0,67,2,67,4
		c0,3-14,26-31,51c-65,96-95,242-66,320c8,22,18,48,22,58c6,15,0,17-68,17c-217,0-416,75-537,201c-86,90-159,260-176,410l-7,59h-346
		l-346,1l36,32c20,18,200,174,400,348c201,174,427,371,503,438l138,121h899C3820,4130,3939,4128,3934,4116z"/>
	<path class="st0" d="M2305,3715c-226-84-314-410-189-708c68-162,206-317,343-385c69-34,82-37,160-37c70,0,94,4,129,23
		c97,52,178,165,211,294c16,63,18,91,11,198c-12,199-74,335-215,477c-113,114-183,147-315,150C2376,3729,2332,3724,2305,3715z"/>
	<path class="st0" d="M2435,1989c-222-30-415-127-497-250c-57-86-71-142-66-261c5-132,33-194,127-289c79-79,189-137,326-170
		c125-31,334-31,450,0c297,78,453,271,415,513c-27,177-115,286-305,378C2737,1982,2583,2009,2435,1989z"/>
</g>
</svg>
