<?xml version="1.0" encoding="utf-8"?>
<!-- Generator: Adobe Illustrator 25.2.1, SVG Export Plug-In . SVG Version: 6.00 Build 0)  -->
<svg version="1.1" id="Calque_3" xmlns="http://www.w3.org/2000/svg" xmlns:xlink="http://www.w3.org/1999/xlink" x="0px" y="0px"
	 viewBox="0 0 32 32" style="enable-background:new 0 0 32 32;" xml:space="preserve">
<style type="text/css">
	.st0{fill:#FAFCFC;}
</style>
<g>
	<path class="st0" d="M13.7,12c-0.5-0.2-0.6-0.2-1.8-0.2c-1.3,0-1.3,0-1.4,2.3c0,1.3,0,2.4,0,2.4c0.1,0.2,2.3,0.1,2.9-0.1
		C15.4,15.5,15.6,12.8,13.7,12z"/>
	<path class="st0" d="M16-0.1C7.2-0.1,0,7.1,0,16c0,8.9,7.2,16,16,16c8.8,0,16-7.2,16-16C32,7.1,24.9-0.1,16-0.1z M19.2,22.8
		c-0.2,0.3-1,0.3-1.9,0.1c-1.4-0.3-2.3-1.1-4.5-4.3c-0.7-1.1-0.7-1.1-1.4-1.1c-1-0.1-1-0.2-0.9,2c0,2.6,0,2.5,1.5,2.8
		c0.4,0.1,0.4,0.1,0.4,0.3c0,0.3,0,0.3-2.6,0.3c-2.5,0-2.6,0-2.7-0.1c-0.1-0.3,0-0.4,0.6-0.5c0.6-0.1,0.9-0.4,1-0.8
		c0-0.2,0-2.3,0-4.8c0-5.2,0-4.9-0.9-5.1C7.2,11.4,7,11.3,7.1,11c0.1-0.2,0.2-0.2,2.9-0.2c4.1-0.1,4.8,0,5.9,1
		c1.1,1,1.3,2.5,0.4,3.8c-0.4,0.6-1.2,1.2-1.8,1.4c-0.3,0.1-0.5,0.2-0.5,0.3c0,0.1,0.9,1.4,1.5,2.1c1.5,1.8,2.3,2.6,3.2,2.8
		C19.2,22.4,19.3,22.6,19.2,22.8z M23.7,10.9c-0.1,1.3-0.4,2-1.3,2.3c-0.6,0.2-1.4,0.3-2,0.2c-1.5-0.3-2.1-1.2-2-3.7
		c0-1.4,0.2-1.7,0.7-2.3c0.9-1,3.2-0.9,4,0.2c0.4,0.5,0.3,0.6-0.2,0.7c-0.4,0.1-0.4,0.1-0.8-0.2c-0.9-0.8-2.3-0.5-2.6,0.5
		c-0.1,0.5-0.1,2.5,0,2.9c0.3,1.3,2.5,1.3,2.8,0c0.2-0.8,0.2-0.9-0.8-0.9c-0.5,0-0.5,0-0.5-0.4c0-0.4,0-0.4,1.1-0.4
		C23.8,9.9,23.7,9.9,23.7,10.9z"/>
</g>
</svg>
